<svg width="100%" height="100%" id="svg" viewBox="0 0 1440 690" xmlns="http://www.w3.org/2000/svg" class="transition duration-300 ease-in-out delay-150"><path d="M 0,700 C 0,700 0,233 0,233 C 70.3179487179487,259.2641025641026 140.6358974358974,285.5282051282051 221,266 C 301.3641025641026,246.47179487179488 391.77435897435896,181.15128205128207 468,170 C 544.225641025641,158.84871794871793 606.2666666666667,201.86666666666667 698,230 C 789.7333333333333,258.1333333333333 911.1589743589743,271.38205128205124 996,266 C 1080.8410256410257,260.61794871794876 1129.0974358974358,236.6051282051282 1197,228 C 1264.9025641025642,219.3948717948718 1352.451282051282,226.1974358974359 1440,233 C 1440,233 1440,700 1440,700 Z" stroke="none" stroke-width="0" fill="#84E9D0" fill-opacity="0.53" class="transition-all duration-300 ease-in-out delay-150 path-0"></path><path d="M 0,700 C 0,700 0,466 0,466 C 94.59999999999997,474.2358974358974 189.19999999999993,482.4717948717949 258,471 C 326.80000000000007,459.5282051282051 369.80000000000007,428.348717948718 442,432 C 514.1999999999999,435.651282051282 615.5999999999999,474.1333333333333 718,503 C 820.4000000000001,531.8666666666667 923.8,551.1179487179486 997,542 C 1070.2,532.8820512820514 1113.2,495.39487179487185 1182,478 C 1250.8,460.60512820512815 1345.4,463.3025641025641 1440,466 C 1440,466 1440,700 1440,700 Z" stroke="none" stroke-width="0" fill="#84E9D0" fill-opacity="1" class="transition-all duration-300 ease-in-out delay-150 path-1"></path></svg>